<?xml version="1.0" encoding="UTF-8"?>
<!DOCTYPE svg PUBLIC "-//W3C//DTD SVG 1.1//EN" "http://www.w3.org/Graphics/SVG/1.1/DTD/svg11.dtd">
<svg xmlns="http://www.w3.org/2000/svg" version="1.1" width="67px" height="67px" style="shape-rendering:geometricPrecision; text-rendering:geometricPrecision; image-rendering:optimizeQuality; fill-rule:evenodd; clip-rule:evenodd" xmlns:xlink="http://www.w3.org/1999/xlink">
<g><path style="opacity:0.796" fill="#7a4f5c" d="M 2.5,-0.5 C 22.8333,-0.5 43.1667,-0.5 63.5,-0.5C 64.5,0.5 65.5,1.5 66.5,2.5C 66.5,22.8333 66.5,43.1667 66.5,63.5C 65.5,64.5 64.5,65.5 63.5,66.5C 43.1667,66.5 22.8333,66.5 2.5,66.5C 1.5,65.5 0.5,64.5 -0.5,63.5C -0.5,43.1667 -0.5,22.8333 -0.5,2.5C 0.5,1.5 1.5,0.5 2.5,-0.5 Z M 4.5,3.5 C 23.1696,3.33339 41.8363,3.50005 60.5,4C 61,4.5 61.5,5 62,5.5C 62.6667,23.8333 62.6667,42.1667 62,60.5C 61.5,61 61,61.5 60.5,62C 42.1667,62.6667 23.8333,62.6667 5.5,62C 5,61.5 4.5,61 4,60.5C 3.18047,41.4267 3.34713,22.4267 4.5,3.5 Z M 26.5,20.5 C 30.8394,19.8461 34.6727,20.8461 38,23.5C 38.9439,26.3471 38.4439,28.8471 36.5,31C 33.3117,32.3158 29.9783,32.8158 26.5,32.5C 26.5,28.5 26.5,24.5 26.5,20.5 Z"/></g>
<g><path style="opacity:0.962" fill="#7a4f5c" d="M 14.5,14.5 C 24.5056,14.3335 34.5056,14.5002 44.5,15C 53.8294,21.6221 54.496,28.9554 46.5,37C 40.2855,38.4155 33.9522,38.9155 27.5,38.5C 27.5,42.8333 27.5,47.1667 27.5,51.5C 23.1667,51.5 18.8333,51.5 14.5,51.5C 14.5,39.1667 14.5,26.8333 14.5,14.5 Z M 26.5,20.5 C 26.5,24.5 26.5,28.5 26.5,32.5C 29.9783,32.8158 33.3117,32.3158 36.5,31C 38.4439,28.8471 38.9439,26.3471 38,23.5C 34.6727,20.8461 30.8394,19.8461 26.5,20.5 Z"/></g>
</svg>
