<?xml version="1.0" encoding="UTF-8"?>
<!DOCTYPE svg PUBLIC "-//W3C//DTD SVG 1.1//EN" "http://www.w3.org/Graphics/SVG/1.1/DTD/svg11.dtd">
<svg xmlns="http://www.w3.org/2000/svg" version="1.1" width="50px" height="50px" style="shape-rendering:geometricPrecision; text-rendering:geometricPrecision; image-rendering:optimizeQuality; fill-rule:evenodd; clip-rule:evenodd" xmlns:xlink="http://www.w3.org/1999/xlink">
<g><path style="opacity:0.937" fill="#794f5b" d="M 49.5,14.5 C 49.5,15.1667 49.5,15.8333 49.5,16.5C 45.2717,18.0661 41.2717,20.0661 37.5,22.5C 36.8333,22.5 36.5,22.8333 36.5,23.5C 35.8333,23.5 35.5,23.8333 35.5,24.5C 35.1667,24.5 34.8333,24.5 34.5,24.5C 33.8333,24.5 33.5,24.8333 33.5,25.5C 32.5084,25.3284 31.8417,25.6618 31.5,26.5C 31.1667,26.5 30.8333,26.5 30.5,26.5C 29.8333,26.5 29.5,26.8333 29.5,27.5C 28.8333,27.5 28.5,27.8333 28.5,28.5C 27.5084,28.3284 26.8417,28.6618 26.5,29.5C 26.1667,29.5 25.8333,29.5 25.5,29.5C 24.8333,29.5 24.1667,29.5 23.5,29.5C 23.1667,29.5 22.8333,29.5 22.5,29.5C 22.1583,28.6618 21.4916,28.3284 20.5,28.5C 20.5,27.8333 20.1667,27.5 19.5,27.5C 19.1667,27.5 18.8333,27.5 18.5,27.5C 18.5,26.8333 18.1667,26.5 17.5,26.5C 17.1583,25.6618 16.4916,25.3284 15.5,25.5C 15.1667,24.1667 14.8333,24.1667 14.5,25.5C 13.8333,25.5 13.5,25.1667 13.5,24.5C 13.1667,23.1667 12.8333,23.1667 12.5,24.5C 11.8333,24.5 11.5,24.1667 11.5,23.5C 9.40988,21.6098 7.07654,19.9431 4.5,18.5C 4.16667,20.5 3.83333,22.5 3.5,24.5C 4.35139,28.5168 4.85139,32.5168 5,36.5C 3.19349,40.3509 1.36016,40.3509 -0.5,36.5C -0.5,34.5 -0.5,32.5 -0.5,30.5C 0.804778,28.6028 1.47144,26.2695 1.5,23.5C 1.47144,20.7305 0.804778,18.3972 -0.5,16.5C -0.5,15.8333 -0.5,15.1667 -0.5,14.5C 7.9638,10.4346 16.2971,6.10129 24.5,1.5C 32.7029,6.10129 41.0362,10.4346 49.5,14.5 Z"/></g>
<g><path style="opacity:0.93" fill="#784f5b" d="M 37.5,22.5 C 39.6943,24.2214 40.861,26.5547 41,29.5C 41.4986,33.1516 41.6653,36.8183 41.5,40.5C 35.1636,39.946 29.4969,41.6127 24.5,45.5C 19.5031,41.6127 13.8364,39.946 7.5,40.5C 7.06817,35.0021 7.73483,29.6688 9.5,24.5C 9.95689,23.7025 10.6236,23.3691 11.5,23.5C 11.5,24.1667 11.8333,24.5 12.5,24.5C 12.8333,24.5 13.1667,24.5 13.5,24.5C 13.5,25.1667 13.8333,25.5 14.5,25.5C 14.8333,25.5 15.1667,25.5 15.5,25.5C 15.8417,26.3382 16.5084,26.6716 17.5,26.5C 18.1667,26.5 18.5,26.8333 18.5,27.5C 18.8333,27.5 19.1667,27.5 19.5,27.5C 20.1667,27.5 20.5,27.8333 20.5,28.5C 20.8417,29.3382 21.5084,29.6716 22.5,29.5C 22.8333,30.8333 23.1667,30.8333 23.5,29.5C 24.1667,29.5 24.8333,29.5 25.5,29.5C 25.8333,30.8333 26.1667,30.8333 26.5,29.5C 27.4916,29.6716 28.1583,29.3382 28.5,28.5C 29.1667,28.5 29.5,28.1667 29.5,27.5C 29.5,26.8333 29.8333,26.5 30.5,26.5C 30.8333,27.8333 31.1667,27.8333 31.5,26.5C 32.4916,26.6716 33.1583,26.3382 33.5,25.5C 34.1667,25.5 34.5,25.1667 34.5,24.5C 34.8333,24.5 35.1667,24.5 35.5,24.5C 36.1667,24.5 36.5,24.1667 36.5,23.5C 36.5,22.8333 36.8333,22.5 37.5,22.5 Z"/></g>
</svg>
