<svg xmlns="http://www.w3.org/2000/svg" xmlns:xlink="http://www.w3.org/1999/xlink" viewBox="0,0,255.99429,255.99429" width="50px" height="50px" fill-rule="nonzero"><g fill="#0081c2" fill-rule="nonzero" stroke="none" stroke-width="1" stroke-linecap="butt" stroke-linejoin="miter" stroke-miterlimit="10" stroke-dasharray="" stroke-dashoffset="0" font-family="none" font-weight="none" font-size="none" text-anchor="none" style="mix-blend-mode: normal"><g transform="scale(5.12,5.12)"><path d="M19,6c-9.375,0 -17,6.50391 -17,14.5c0,4.26953 2.05859,8.10938 5.81641,10.89063l-2.63672,7.91406l8.24609,-5.10547c2.28906,0.71875 5.08203,0.97266 7.77734,0.67578c2.1875,4.23438 7.12891,7.125 12.79688,7.125c1.72266,0 3.31641,-0.32422 4.79688,-0.76562l6.84766,3.83203l-1.91016,-6.55078c2.57813,-2.14062 4.26563,-5.12109 4.26563,-8.51562c0,-6.21094 -5.40234,-11.16406 -12.25,-11.89453c-1.34375,-6.95312 -8.38281,-12.10547 -16.75,-12.10547zM13,14c1.10156,0 2,0.89844 2,2c0,1.10156 -0.89844,2 -2,2c-1.10156,0 -2,-0.89844 -2,-2c0,-1.10156 0.89844,-2 2,-2zM25,14c1.10156,0 2,0.89844 2,2c0,1.10156 -0.89844,2 -2,2c-1.10156,0 -2,-0.89844 -2,-2c0,-1.10156 0.89844,-2 2,-2zM34,20c6.74609,0 12,4.53516 12,10c0,2.95703 -1.50781,5.55078 -3.99609,7.39453l-0.55859,0.41797l0.91016,3.12109l-3.25,-1.82422l-0.42187,0.14063c-1.39844,0.46875 -2.99609,0.75 -4.68359,0.75c-6.74609,0 -12,-4.53516 -12,-10c0,-5.46484 5.25391,-10 12,-10zM29.5,26c-0.80078,0 -1.5,0.69922 -1.5,1.5c0,0.80078 0.69922,1.5 1.5,1.5c0.80078,0 1.5,-0.69922 1.5,-1.5c0,-0.80078 -0.69922,-1.5 -1.5,-1.5zM38.5,26c-0.80078,0 -1.5,0.69922 -1.5,1.5c0,0.80078 0.69922,1.5 1.5,1.5c0.80078,0 1.5,-0.69922 1.5,-1.5c0,-0.80078 -0.69922,-1.5 -1.5,-1.5z"></path></g></g></svg>