<svg xmlns="http://www.w3.org/2000/svg" xmlns:xlink="http://www.w3.org/1999/xlink" viewBox="0,0,255.99429,255.99429" width="48px" height="48px" fill-rule="nonzero"><g fill="#0081c2" fill-rule="nonzero" stroke="none" stroke-width="1" stroke-linecap="butt" stroke-linejoin="miter" stroke-miterlimit="10" stroke-dasharray="" stroke-dashoffset="0" font-family="none" font-weight="none" font-size="none" text-anchor="none" style="mix-blend-mode: normal"><g transform="scale(10.66667,10.66667)"><path d="M5.05078,2.68359l-2,6l1.89844,0.63281l0.77148,-2.31641h1.2793v3.22266c0,0.64567 -0.07801,1.19543 -0.12891,1.77734h-2.87109v2h2.54297c-0.55968,2.26977 -1.72153,4.02912 -4.03906,5.35352l0.99219,1.73633c2.91244,-1.66436 4.4261,-4.13256 5.08008,-7.08984h2.42383v-2h-2.15234c0.05324,-0.5913 0.15234,-1.15586 0.15234,-1.77734v-3.22266h2v-2h-4.61133l0.56055,-1.68359zM13,5v13h2v2.86914l4.30273,-2.86914h2.69727v-1v-12zM15,7h5v9h-1.30273l-1.69727,1.13086v-1.13086h-2zM9.17773,15.80664l-1.61523,1.17969l2.62891,3.60352l1.61719,-1.17969z"></path></g></g></svg>